<svg id="visual" viewBox="0 0 900 600" width="900" height="600" xmlns="http://www.w3.org/2000/svg" xmlns:xlink="http://www.w3.org/1999/xlink" version="1.1"><g transform="translate(87.9320451310727 19.871152783051627)"><path d="M299.2 -422.2C390.4 -345.6 468.6 -261.7 490.9 -165.9C513.2 -70.2 479.5 37.3 441.3 139.8C403 242.2 360.2 339.5 285.9 403.1C211.6 466.6 105.8 496.3 -18.4 521.6C-142.6 547 -285.3 568 -394.3 515.7C-503.4 463.5 -578.9 338.1 -626.4 201.3C-674 64.5 -693.6 -83.6 -648.4 -206.9C-603.1 -330.1 -492.9 -428.4 -374 -495.9C-255.1 -563.4 -127.5 -600.2 -11.8 -584C104 -567.9 208.1 -498.7 299.2 -422.2" fill="#ca1011"></path></g></svg>