<svg xmlns="http://www.w3.org/2000/svg" viewBox="0 0 100 1000">
	<rect fill="#ededed" width="100" height="1000" />
	<g>
		<circle fill="#ededed" cx="50" cy="0" r="50" />
		<g fill="#e9e9e9">
			<circle cx="0" cy="50" r="50" />
			<circle cx="100" cy="50" r="50" />
		</g>
		<circle fill="#e4e4e4" cx="50" cy="100" r="50" />
		<g fill="#e0e0e0">
			<circle cx="0" cy="150" r="50" />
			<circle cx="100" cy="150" r="50" />
		</g>
		<circle fill="#dcdcdc" cx="50" cy="200" r="50" />
		<g fill="#d7d7d7">
			<circle cx="0" cy="250" r="50" />
			<circle cx="100" cy="250" r="50" />
		</g>
		<circle fill="#d2d2d2" cx="50" cy="300" r="50" />
		<g fill="#cecece">
			<circle cx="0" cy="350" r="50" />
			<circle cx="100" cy="350" r="50" />
		</g>
		<circle fill="#c9c9c9" cx="50" cy="400" r="50" />
		<g fill="#c4c4c4">
			<circle cx="0" cy="450" r="50" />
			<circle cx="100" cy="450" r="50" />
		</g>
		<circle fill="#bebebe" cx="50" cy="500" r="50" />
		<g fill="#b9b9b9">
			<circle cx="0" cy="550" r="50" />
			<circle cx="100" cy="550" r="50" />
		</g>
		<circle fill="#b4b4b4" cx="50" cy="600" r="50" />
		<g fill="#aeaeae">
			<circle cx="0" cy="650" r="50" />
			<circle cx="100" cy="650" r="50" />
		</g>
		<circle fill="#a8a8a8" cx="50" cy="700" r="50" />
		<g fill="#a2a2a2">
			<circle cx="0" cy="750" r="50" />
			<circle cx="100" cy="750" r="50" />
		</g>
		<circle fill="#9c9c9c" cx="50" cy="800" r="50" />
		<g fill="#969696">
			<circle cx="0" cy="850" r="50" />
			<circle cx="100" cy="850" r="50" />
		</g>
		<circle fill="#8f8f8f" cx="50" cy="900" r="50" />
		<g fill="#888888">
			<circle cx="0" cy="950" r="50" />
			<circle cx="100" cy="950" r="50" />
		</g>
		<circle fill="#808080" cx="50" cy="1000" r="50" />
	</g>
</svg>
